HIERARCHY
ROOT Hips
{
	OFFSET 0.00 0.00 0.00
	CHANNELS 6 Xposition Yposition Zposition Xrotation Yrotation Zrotation
	JOINT Spine
	{
		OFFSET 0.00000 1.15266 1.72900
		CHANNELS 3 Xrotation Yrotation Zrotation
		JOINT Spine1
		{
			OFFSET 0.00000 0.40032 2.27031
			CHANNELS 3 Xrotation Yrotation Zrotation
			JOINT Spine2
			{
				OFFSET 0.00000 0.20092 2.29656
				CHANNELS 3 Xrotation Yrotation Zrotation
				JOINT Spine3
				{
					OFFSET 0.00000 0.00000 2.30533
					CHANNELS 3 Xrotation Yrotation Zrotation
					JOINT Neck
					{
						OFFSET 0.00000 -0.86449 6.05149
						CHANNELS 3 Xrotation Yrotation Zrotation
						JOINT Head
						{
							OFFSET 0.00000 -0.55043 3.12167
							CHANNELS 3 Xrotation Yrotation Zrotation
							End Site
							{
								OFFSET 0.00000 0.00000 3.73175
							}
						}
					}
					JOINT RightShoulder
					{
						OFFSET -0.78828 -1.31380 4.25672
						CHANNELS 3 Xrotation Yrotation Zrotation
						JOINT RightArm
						{
							OFFSET -3.91513 0.00000 0.00000
							CHANNELS 3 Xrotation Yrotation Zrotation
							JOINT RightForeArm
							{
								OFFSET -6.91491 0.00000 0.00000
								CHANNELS 3 Xrotation Yrotation Zrotation
								JOINT RightHand
								{
									OFFSET -6.09622 0.00000 0.00000
									CHANNELS 3 Xrotation Yrotation Zrotation
									JOINT RightHandEnd
									{
										OFFSET -1.74995 0.00000 0.00000
										CHANNELS 3 Xrotation Yrotation Zrotation
										End Site
										{
											OFFSET -1.74995 0.00000 0.00000
										}
									}
									JOINT RightHandThumb1
									{
										OFFSET -0.69998 -1.16663 -0.46665
										CHANNELS 3 Yrotation Xrotation Zrotation
										End Site
										{
											OFFSET -1.69032 -0.45292 0.00000
										}
									}
								}
							}
						}
					}
					JOINT LeftShoulder
					{
						OFFSET 0.78828 -1.31380 4.25672
						CHANNELS 3 Xrotation Yrotation Zrotation
						JOINT LeftArm
						{
							OFFSET 3.91513 0.00000 0.00000
							CHANNELS 3 Xrotation Yrotation Zrotation
							JOINT LeftForeArm
							{
								OFFSET 6.91491 0.00000 0.00000
								CHANNELS 3 Xrotation Yrotation Zrotation
								JOINT LeftHand
								{
									OFFSET 6.09622 0.00000 0.00000
									CHANNELS 3 Xrotation Yrotation Zrotation
									JOINT LeftHandEnd
									{
										OFFSET 1.74995 0.00000 0.00000
										CHANNELS 3 Xrotation Yrotation Zrotation
										End Site
										{
											OFFSET 1.74995 0.00000 0.00000
										}
									}
									JOINT LeftHandThumb1
									{
										OFFSET 0.69998 -1.16663 -0.46665
										CHANNELS 3 Yrotation Xrotation Zrotation
										End Site
										{
											OFFSET 1.69032 -0.45292 0.00000
										}
									}
								}
							}
						}
					}
				}
			}
		}
	}
	JOINT RightUpLeg
	{
		OFFSET -2.33857 0.00000 -0.68318
		CHANNELS 3 Xrotation Yrotation Zrotation
		JOINT RightLeg
		{
			OFFSET 0.00000 0.00000 -10.74496
			CHANNELS 3 Xrotation Yrotation Zrotation
			JOINT RightFoot
			{
				OFFSET 0.00000 0.00000 -10.93085
				CHANNELS 3 Xrotation Yrotation Zrotation
				JOINT RightToeBase
				{
					OFFSET 0.00000 -4.08727 -1.48765
					CHANNELS 3 Xrotation Yrotation Zrotation
					End Site
					{
						OFFSET 0.00000 -1.89187 -0.00000
					}
				}
			}
		}
	}
	JOINT LeftUpLeg
	{
		OFFSET 2.33857 0.00000 -0.68318
		CHANNELS 3 Xrotation Yrotation Zrotation
		JOINT LeftLeg
		{
			OFFSET 0.00000 0.00000 -10.74496
			CHANNELS 3 Xrotation Yrotation Zrotation
			JOINT LeftFoot
			{
				OFFSET 0.00000 0.00000 -10.93085
				CHANNELS 3 Xrotation Yrotation Zrotation
				JOINT LeftToeBase
				{
					OFFSET 0.00000 -4.08727 -1.48765
					CHANNELS 3 Xrotation Yrotation Zrotation
					End Site
					{
						OFFSET 0.00000 -1.89187 -0.00000
					}
				}
			}
		}
	}
}
MOTION
Frames: 10
Frame Time:	0.05
 -4.0126 -0.6300 18.2161 1.9082 3.8288 130.3703 -4.5219 -4.5581 -0.8669 -1.6682 -2.9018 0.2500 -0.0975 10.4950 10.7827 1.9241 4.0566 -0.2615 3.4501 -5.6946 -3.1469 -5.9164 2.9171 -9.3813 -13.0507 12.9009 -5.7164 -35.3328 0.8289 28.4028 0.0000 0.0000 15.7312 -26.6154 5.1039 14.0029 0.0000 -0.0000 -0.0000 -0.0000 -0.0000 0.0000 -11.6103 -3.8761 7.4112 -11.5556 -0.0312 -26.8023 -0.0000 0.0000 7.2501 -9.4009 1.3898 7.0287 0.0000 0.0000 0.0000 0.0000 -0.0000 -0.0000 -47.2241 49.6774 4.9407 57.4314 0.0000 0.0000 0.5631 -34.6810 30.9735 4.4729 0.0000 0.0000 13.2342 -40.7798 28.2241 3.0854 0.0000 0.0000 5.2290 46.7060 -1.2618 2.9914 0.0000 0.0000
 -4.1674 -0.7445 18.3163 2.3093 2.5757 130.3031 -3.8093 -4.0036 -0.9914 -1.4870 -1.9787 0.3308 0.6397 9.2782 9.8786 1.9997 3.6208 -0.1070 4.0239 -5.4413 -3.2988 -5.6633 2.3677 -9.2517 -13.9138 15.9135 -4.7314 -33.8737 -4.2200 24.7099 0.0000 0.0000 17.0256 -25.6805 6.3634 14.3825 0.0000 -0.0000 0.0000 -0.0000 0.0000 0.0000 -10.8494 -5.6589 6.4580 -12.1561 3.6834 -25.9586 -0.0000 0.0000 7.3920 -11.8140 -3.6165 5.3019 0.0000 0.0000 -0.0000 0.0000 -0.0000 -0.0000 -45.2111 48.6324 4.3710 56.3899 0.0000 0.0000 0.4890 -34.3620 29.9580 4.6637 0.0000 0.0000 12.5704 -41.6578 26.9491 5.2401 0.0000 0.0000 4.3741 45.3941 -1.2852 3.7623 0.0000 0.0000
 -4.2817 -0.9094 18.3024 3.8075 0.4038 132.8192 -1.9673 -2.5026 -1.2138 -0.8389 -0.2908 0.3906 1.7338 7.5320 7.3436 1.8678 2.8153 -0.0572 4.0743 -5.4192 -4.0648 -5.1867 1.8219 -9.3307 -14.0789 19.1955 -2.7622 -34.0311 -7.5303 18.3137 0.0000 0.0000 18.9037 -24.7576 7.1035 14.5186 0.0000 0.0000 -0.0000 0.0000 -0.0000 -0.0000 -9.9573 -8.8862 4.7358 -11.6004 8.2407 -24.0005 -0.0000 0.0000 6.3938 -13.4009 -7.8353 4.1245 0.0000 0.0000 0.0000 0.0000 -0.0000 -0.0000 -40.5005 47.6843 5.3277 56.9391 0.0000 0.0000 -2.9010 -35.5774 25.0770 4.6869 0.0000 0.0000 9.8740 -43.7642 25.4709 9.0033 0.0000 0.0000 7.0130 44.4097 -6.9015 3.8538 0.0000 0.0000
 -4.2602 -1.1306 18.2601 4.8335 -2.5287 136.0642 -0.1221 -1.6427 -1.2827 -0.2282 0.6186 0.3166 2.7010 6.2791 5.3131 2.0551 2.2598 -0.1869 4.9888 -5.0539 -4.9038 -5.1477 1.2354 -10.1728 -14.5556 22.8559 -1.3754 -33.8032 -10.3726 11.5376 0.0000 0.0000 19.3446 -25.3552 7.0264 14.2767 -0.0000 0.0000 -0.0000 0.0000 -0.0000 0.0000 -9.9042 -11.6893 2.8675 -11.3066 13.7972 -22.6304 -0.0000 0.0000 5.6882 -15.4141 -9.8694 3.0788 0.0000 0.0000 0.0000 0.0000 -0.0000 -0.0000 -34.1049 46.4131 3.5141 58.0255 0.0000 0.0000 -7.1247 -36.6280 20.5790 4.6546 0.0000 0.0000 7.5201 -46.4503 20.7084 11.0164 0.0000 0.0000 6.9659 42.5468 -8.7757 3.8719 0.0000 0.0000
 -4.2168 -1.4096 18.2617 4.6833 -4.1117 137.9741 0.6591 -0.9900 -1.3718 -0.0769 1.2396 0.3059 2.6226 6.0866 4.5163 2.3306 1.9451 -0.3102 8.3921 -5.9590 -5.4518 -5.1717 0.3357 -11.9881 -16.1147 23.8118 -0.2368 -33.3171 -11.8404 6.8642 0.0000 0.0000 17.2389 -25.3796 6.0945 13.6584 0.0000 -0.0000 0.0000 0.0000 -0.0000 -0.0000 -9.9297 -11.0473 2.3038 -12.8065 17.1128 -22.6071 -0.0000 0.0000 5.5491 -16.2540 -11.4882 2.0481 0.0000 -0.0000 0.0000 0.0000 -0.0000 0.0000 -31.2464 44.2562 2.7697 59.2958 0.0000 0.0000 -11.2924 -37.1117 17.1880 3.8830 0.0000 0.0000 5.0868 -48.2359 16.4501 12.4516 0.0000 0.0000 2.4085 40.7040 -6.7259 0.6836 0.0000 0.0000
 -4.3148 -1.6321 18.1169 4.9194 -4.3566 139.0447 1.7107 0.2838 -1.4776 0.0447 1.8069 0.3050 3.0219 5.9519 3.6340 2.5778 1.6516 -0.6058 10.9583 -5.8856 -5.9544 -6.3619 -0.7757 -13.9179 -17.6675 25.2443 -2.7868 -32.4651 -13.7251 6.8317 0.0000 0.0000 14.6521 -26.8103 6.5758 13.6697 0.0000 -0.0000 0.0000 -0.0000 0.0000 0.0000 -9.9693 -9.1125 0.9576 -17.3344 18.9512 -18.0362 -0.0000 0.0000 6.0308 -17.8733 -12.1224 3.2068 0.0000 -0.0000 0.0000 0.0000 -0.0000 0.0000 -31.4555 42.6977 5.5548 61.3896 0.0000 0.0000 -17.9491 -37.4909 12.1895 3.3141 0.0000 0.0000 2.0103 -49.6767 16.6396 15.0603 0.0000 0.0000 0.5647 42.4091 -8.4070 0.4858 0.0000 0.0000
 -4.2656 -1.6823 18.0077 4.2144 -4.7884 138.8022 2.6147 1.1226 -1.6580 0.1617 2.0609 0.3035 2.8618 5.1825 3.6692 3.0216 1.5015 -0.5257 11.9705 -4.4322 -6.6836 -8.5521 -1.4882 -15.3181 -19.6778 26.5574 -1.8266 -36.8827 -9.5770 0.5855 0.0000 0.0000 15.0599 -28.3665 5.7116 13.2781 -0.0000 0.0000 -0.0000 -0.0000 -0.0000 0.0000 -11.7557 -8.2011 1.4482 -21.4880 17.4166 -13.8090 -0.0000 0.0000 5.1271 -22.4007 -13.2805 4.2106 0.0000 0.0000 0.0000 0.0000 0.0000 0.0000 -32.6798 40.9062 7.1724 62.5921 0.0000 0.0000 -16.9694 -37.1472 11.4196 3.9310 0.0000 0.0000 -0.1026 -50.5654 12.4964 16.6347 0.0000 0.0000 2.5085 42.1873 -7.9894 1.7143 0.0000 0.0000
 -3.8199 -1.4549 17.9618 1.8715 -6.5635 138.6580 2.8916 1.9810 -1.9491 0.5559 2.7685 0.2073 0.9566 3.3843 2.3498 2.9077 -0.5514 0.0219 13.4713 -3.1785 -7.4499 -5.3946 -1.8430 -15.2103 -21.6308 31.8289 -1.8344 -42.0195 -8.7286 -7.5560 0.0000 0.0000 19.3500 -32.8306 4.5213 12.5406 -0.0000 -0.0000 -0.0000 0.0000 -0.0000 -0.0000 -13.6966 -12.9602 3.8004 -27.1250 10.5679 -11.2239 -0.0000 0.0000 4.3102 -21.0606 -16.8584 7.8644 -0.0000 -0.0000 -0.0000 0.0000 -0.0000 0.0000 -30.2021 40.5300 1.0067 62.4924 0.0000 0.0000 -14.0258 -37.3642 16.2194 4.7616 0.0000 0.0000 0.5896 -52.8572 5.6540 16.2354 0.0000 0.0000 -2.8363 41.9700 1.5548 4.7427 0.0000 0.0000
 -3.7814 -0.9892 17.8833 1.5691 -8.5954 136.0643 6.2034 3.6597 -2.0469 2.6209 3.3145 0.0374 -1.2358 2.2313 -1.1062 1.6950 -2.7195 0.9695 10.4859 -6.0788 -7.1230 0.1326 -0.4792 -13.3685 -25.9093 35.6940 -5.2421 -54.1817 -12.0338 -7.4580 0.0000 0.0000 31.4509 -21.6393 8.1092 13.4561 -0.0000 0.0000 -0.0000 0.0000 -0.0000 0.0000 -17.0137 -26.9240 6.5649 -29.4385 -6.3981 -10.0507 -0.0000 -0.0000 -1.1124 -18.5104 -18.5662 7.5785 -0.0000 0.0000 0.0000 0.0000 -0.0000 0.0000 -29.5074 37.6839 3.8639 61.7630 0.0000 0.0000 -12.4589 -38.1035 15.9686 5.2423 0.0000 0.0000 1.2661 -54.4533 4.0408 22.7062 0.0000 0.0000 -5.3196 45.0543 4.0633 5.9365 0.0000 0.0000
 -4.7935 -0.1811 18.6366 -1.7570 -5.7344 134.4120 5.2211 0.2491 -1.2036 1.0946 0.9217 0.0876 -1.1508 0.8256 4.0021 2.8040 -0.4129 0.9105 9.6073 -5.3808 -7.2719 -9.7707 0.3831 -17.4671 -23.5566 30.5009 -11.9143 -67.7672 -0.6769 19.8754 0.0000 0.0000 35.3718 -17.2307 20.9039 11.0182 -0.0000 -0.0000 -0.0000 -0.0000 -0.0000 -0.0000 -17.6421 -24.6031 4.8294 -40.8705 -26.7710 -25.0087 -0.0000 -0.0000 -4.4374 -15.7822 -30.5777 2.5642 -0.0000 -0.0000 -0.0000 0.0000 -0.0000 -0.0000 -26.4153 36.5187 3.5616 47.2674 0.0000 0.0000 -7.0909 -40.1499 9.7151 4.9074 0.0000 0.0000 -5.4084 -50.9176 2.3028 28.2628 0.0000 0.0000 -13.2735 42.6987 8.6947 7.1530 0.0000 0.0000
